<svg width="156" height="43" viewBox="0 0 156 43" fill="none" xmlns="http://www.w3.org/2000/svg">
<path d="M0 0 C4.22405285 2.21785781 6.62362133 5.1445843 8.79296875 9.31640625 C9.54296875 12.69140625 9.54296875 12.69140625 9.79296875 15.31640625 C6.35087439 17.49431323 2.98830654 19.15614381 -0.83203125 20.56640625 C-2.24355469 21.10007812 -2.24355469 21.10007812 -3.68359375 21.64453125 C-6.20703125 22.31640625 -6.20703125 22.31640625 -9.20703125 21.31640625 C-9.20703125 19.33640625 -9.20703125 17.35640625 -9.20703125 15.31640625 C-6.56703125 13.99640625 -3.92703125 12.67640625 -1.20703125 11.31640625 C-1.20703125 10.65640625 -1.20703125 9.99640625 -1.20703125 9.31640625 C-4.61908721 7.21667951 -7.23705595 6.98557498 -11.20703125 7.31640625 C-13.79674372 8.17964374 -14.87203862 8.84741657 -16.45703125 11.06640625 C-17.45691212 14.06604887 -17.58540327 16.16330608 -17.20703125 19.31640625 C-14.93222978 23.29730883 -12.11839129 26.78118335 -9.20703125 30.31640625 C-6.71979366 29.28720449 -5.40931812 28.61983655 -3.89453125 26.34765625 C-1.77856256 23.8006569 -0.19180377 23.39037314 2.98046875 22.56640625 C4.33205078 22.20289063 4.33205078 22.20289063 5.7109375 21.83203125 C6.39800781 21.661875 7.08507813 21.49171875 7.79296875 21.31640625 C6.8320015 26.23820006 4.02774231 29.59520137 1.10546875 33.56640625 C0.58791016 34.31148437 0.07035156 35.0565625 -0.46289062 35.82421875 C-4.33449735 41.08921818 -4.33449735 41.08921818 -8.3125 42.125 C-12.20894515 41.03651937 -13.42613631 39.34668447 -15.83203125 36.12890625 C-16.93417969 34.68451172 -16.93417969 34.68451172 -18.05859375 33.2109375 C-18.76757812 32.25574219 -19.4765625 31.30054687 -20.20703125 30.31640625 C-20.93664062 29.43339844 -21.66625 28.55039062 -22.41796875 27.640625 C-26.31034147 22.58393991 -25.78930706 16.4222151 -25.20703125 10.31640625 C-20.29583904 0.13022981 -10.67238077 -3.30560466 0 0 Z " fill="#339CB3" transform="translate(25.20703125,0.68359375)"/>
<path d="M0 0 C3.36508112 2.13395388 3.8559547 3.3758037 4.75 7.25 C4.87375 8.61125 4.87375 8.61125 5 10 C4.01 10.33 3.02 10.66 2 11 C2.99 11.33 3.98 11.66 5 12 C4.12269491 14.70502403 3.28331029 16.68400006 1.375 18.8125 C-2.0574817 20.52874085 -5.28528802 20.68545281 -9 20 C-11.8100346 18.20636089 -13.50940468 16.98119065 -15 14 C-15.49170132 9.08298685 -15.48320696 6.90198633 -13.125 2.5 C-9.51588583 -1.2849163 -4.84729923 -0.94980863 0 0 Z M-8.75 5.125 C-10.59243126 7.88864689 -10.47285472 9.75756763 -10 13 C-8.5 15.16666667 -8.5 15.16666667 -6 16 C-2.77825456 15.28776153 -2.77825456 15.28776153 0 14 C0 13.34 0 12.68 0 12 C-1.98 12.33 -3.96 12.66 -6 13 C-5.8125 11.125 -5.8125 11.125 -5 9 C-2.4375 7.75 -2.4375 7.75 0 7 C-1.2488427 5.4166747 -1.2488427 5.4166747 -3 4 C-6.78595012 3.63949494 -6.78595012 3.63949494 -8.75 5.125 Z " fill="#4EB8AE" transform="translate(64,10)"/>
<path d="M0 0 C2.64369609 1.79126249 3.38593365 3.10581207 5 6 C5.25 8.1875 5.25 8.1875 4 10 C0.5039097 11.81278756 -2.03981755 13 -6 13 C-6 11.35 -6 9.7 -6 8 C-4.35 7.34 -2.7 6.68 -1 6 C-3.97 5.505 -3.97 5.505 -7 5 C-8.73647948 6.67488528 -8.73647948 6.67488528 -10 9 C-9.58612501 11.74303573 -9.58612501 11.74303573 -8 14 C-6.16666667 15.16666667 -6.16666667 15.16666667 -4 15 C-2.66150329 14.00692179 -1.32848691 13.00642948 0 12 C2.75 11.8125 2.75 11.8125 5 12 C4.12269491 14.70502403 3.28331029 16.68400006 1.375 18.8125 C-2.0574817 20.52874085 -5.28528802 20.68545281 -9 20 C-11.8100346 18.20636089 -13.50940468 16.98119065 -15 14 C-15.64233846 9.3292818 -15.62020335 6.0129988 -13.125 1.9375 C-8.74950683 -0.77530577 -5.01541827 -1.1738213 0 0 Z " fill="#2389B5" transform="translate(121,10)"/>
<path d="M0 0 C1.65 0 3.3 0 5 0 C5.33 4.62 5.66 9.24 6 14 C7.65 14 9.3 14 11 14 C11.33 9.38 11.66 4.76 12 0 C13.65 0 15.3 0 17 0 C17 6.6 17 13.2 17 20 C14.9375 20.061875 12.875 20.12375 10.75 20.1875 C9.00976562 20.23970703 9.00976562 20.23970703 7.234375 20.29296875 C4 20 4 20 1.59375 19.03125 C-0.98192027 15.74853298 -0.42216716 12.34849565 -0.25 8.3125 C-0.23195313 7.51521484 -0.21390625 6.71792969 -0.1953125 5.89648438 C-0.14822247 3.93047551 -0.07647899 1.96508506 0 0 Z " fill="#1378B8" transform="translate(128,10)"/>
<path d="M0 0 C1.65 0 3.3 0 5 0 C5.67119549 1.4562545 6.33681807 2.91507867 7 4.375 C7.556875 5.59316406 7.556875 5.59316406 8.125 6.8359375 C9 9 9 9 9 11 C9.66 11 10.32 11 11 11 C11.12375 10.29875 11.2475 9.5975 11.375 8.875 C12.03838345 5.82343613 12.97211955 2.94659062 14 0 C15.98 0 17.96 0 20 0 C18.07443364 6.85618326 15.7527517 13.43252132 13 20 C11.02 20 9.04 20 7 20 C5.82685974 17.23174812 4.66129785 14.46071514 3.5 11.6875 C2.99919922 10.50897461 2.99919922 10.50897461 2.48828125 9.30664062 C2.17246094 8.54931641 1.85664062 7.79199219 1.53125 7.01171875 C1.23798828 6.31522217 0.94472656 5.61872559 0.64257812 4.90112305 C0 3 0 3 0 0 Z " fill="#3FA8B1" transform="translate(69,10)"/>
<path d="M0 0 C1.65 0 3.3 0 5 0 C4.01 2.97 3.02 5.94 2 9 C2.66 9.33 3.32 9.66 4 10 C4 9.01 4 8.02 4 7 C5.32 7 6.64 7 8 7 C8 7.99 8 8.98 8 10 C8.66 10 9.32 10 10 10 C10 11.65 10 13.3 10 15 C9.34 15 8.68 15 8 15 C8 16.65 8 18.3 8 20 C6.68 20 5.36 20 4 20 C4 18.35 4 16.7 4 15 C1.03 15 -1.94 15 -5 15 C-4.56826496 8.84777564 -3.34594658 5.18082051 0 0 Z " fill="#3199B3" transform="translate(94,10)"/>
<path d="M0 0 C0.33 2.31 0.66 4.62 1 7 C-4.445 8.485 -4.445 8.485 -10 10 C-11 9 -11 9 -11.0625 5.9375 C-11.041875 4.968125 -11.02125 3.99875 -11 3 C-9.73581754 2.30034557 -8.46334598 1.61565237 -7.1875 0.9375 C-6.47980469 0.55464844 -5.77210937 0.17179688 -5.04296875 -0.22265625 C-3 -1 -3 -1 0 0 Z " fill="#49B3AF" transform="translate(27,13)"/>
<defs>

</defs>
</svg>