<?xml version="1.0" encoding="UTF-8"?>
<svg version="1.1" viewBox="0 0 1980 2048" width="1280" height="1280" xmlns="http://www.w3.org/2000/svg">
<path transform="translate(429,10)" d="m0 0h7l3 1v2h6v-2h418l2 1h8l3-1h9l6 1 13-1 3-1h11l6 2 12-1 181 1 33 1 20 7 14 8 6 5 8 7 4 5 8 11 9 18 1 8 2 4v11h2l1 770h134l5 2 11 2 27 9 13 7 14 9 8 7 8 6 9 9 14 20 9 15 8 19 2 5 2 10 1 1 1 13 2 2 1 542 1 1 2 9 6 18 8 12 8 11 7 7 10 7 17 9 15 5 2 1h38l3-2 14-4 17-9 9-7 8-7 13-18 5-10 4-12 2-10 1-1v-837l-1-1-141-1-1-3-8 1-16-6-14-8-8-6-11-11-11-18-7-16-1-6-1-1v-237l5-13 11-12 10-6 12-5h70l1-131 4-10 6-8 6-5 5-2 13-1 11 2 9 6 6 10 3 8 1 131 156-1 1-4 1-126 5-13 7-8 8-4h22l8 4 7 8 5 12 1 124 1 7 67 1 15 5 11 7 9 10 6 14v230l-3 14-5 13-8 15-7 9-9 9-14 9-14 7-9 3-8-1-1 3-143 1-1 849-2 4v7l-2 3-2 10-7 17-7 14-7 11-11 13-6 8-9 7-11 9-16 10-19 9-10 3-6 2-9 2-4 1h-11l-2 2h-30l-5-2h-8l-5-2-11-2-14-5-12-5-13-7-16-11-17-16-11-13-8-13-8-14-4-10-4-11-2-9-2-10-1-1-1-541-2-2-1-13-4-10-4-11-7-11-11-12-9-9-13-8-15-7-5-2-11-1-4-2h-116l-4 1-1 5v881l55 1 14 4 9 4 12 8 6 7 8 13 2 4 1 8 2 2v117l-4 14-6 12-9 10-9 8-10 5-9 3-158 2h-15l-4-1-18-1v2l-958-1-49-1-15-6-10-7-9-9-7-11-5-13v-125l7-16 7-11 5-5 9-7 8-4 9-3h7v-2l56-1 1-1717 2-3 1-13 4-11 4-10 14-20 7-7 15-10 19-9 7-1 1-1 20-1 168-1 7 1zm-26 253-2 3v377l2 3h566l2-1 1-18v-338l-1-24-2-2z" fill="#FDFDFD"/>
<path transform="translate(429,10)" d="m0 0h7l3 1v2h6v-2h418l2 1h8l3-1h9l6 1 13-1 3-1h11l6 2 12-1 181 1 33 1 20 7 14 8 6 5 8 7 4 5 8 11 9 18 1 8 2 4v11h2l1 770h134l5 2 11 2 27 9 13 7 14 9 8 7 8 6 9 9 14 20 9 15 8 19 2 5 2 10 1 1 1 13 2 2 1 542 1 1 2 9 6 18 8 12 8 11 7 7 10 7 17 9 15 5 2 1h38l3-2 14-4 17-9 9-7 8-7 13-18 5-10 4-12 2-10 1-1v-837l-1-1-141-1-1-3-8 1-16-6-14-8-8-6-11-11-11-18-7-16-1-6-1-1v-237l5-13 11-12 10-6 12-5h70l1-131 4-10 6-8 6-5 5-2 13-1 11 2 9 6 6 10 3 8 1 131 156-1 1-4 1-126 5-13 7-8 8-4h22l8 4 7 8 5 12 1 124 1 7 67 1 15 5 11 7 9 10 6 14v230l-3 14-5 13-8 15-7 9-9 9-14 9-14 7-9 3-8-1-1 3-143 1-1 849-2 4v7l-2 3-2 10-7 17-7 14-7 11-11 13-6 8-9 7-11 9-16 10-19 9-10 3-6 2-9 2-4 1h-11l-2 2h-30l-5-2h-8l-5-2-11-2-14-5-12-5-13-7-16-11-17-16-11-13-8-13-8-14-4-10-4-11-2-9-2-10-1-1-1-541-2-2-1-13-4-10-4-11-7-11-11-12-9-9-13-8-15-7-5-2-11-1-4-2h-116l-4 1-1 5v881l55 1 14 4 9 4 12 8 6 7 8 13 2 4 1 8 2 2v117l-4 14-6 12-9 10-9 8-10 5-9 3-158 2h-15l-4-1-18-1v2l-958-1-49-1-15-6-10-7-9-9-7-11-5-13v-125l7-16 7-11 5-5 9-7 8-4 9-3h7v-2l56-1 1-1717 2-3 1-13 4-11 4-10 14-20 7-7 15-10 19-9 7-1 1-1 20-1 168-1 7 1zm-192 64-9 3-8 6-6 9-3 10v1710l1 3 227 1 722-1v-1715l-4-11-8-9-10-5-4-1z" fill="#010101"/>
<path transform="translate(390,201)" d="m0 0h592l11 3 14 7 10 9 7 8 8 16 2 9 1 384-1 18-4 14-6 11-11 12-8 6-12 6-11 3-269 1h-49l-273-1-12-3-15-8-11-10-7-10-5-11-3-12v-398l4-15 7-13 11-12 14-9 11-4zm13 62-2 3v377l2 3h566l2-1 1-18v-338l-1-24-2-2z"/>
<path transform="translate(100,1879)" d="m0 0h1171l1 1v93l-1 1h-1170l-1-1z" fill="#FEFEFE"/>
<path transform="translate(765,836)" d="m0 0h1l-1 14-29 223-15 114 68-12 99-17 2 1-15 27-14 24-14 25-12 21-15 26-14 25-10 17-14 25-12 21-15 26-14 25-14 24-14 25-14 24-15 27-8 14-15 26-13 23-44 77-13 23-4 4 3-21 18-121 19-130 14-95 2-7-43 7-109 19-8 1 2-5 12-22 13-23 14-25 16-29 14-24 14-26 13-23 14-25 10-18 13-23 15-27 13-23 15-27 13-23 28-50 15-27 13-23 15-27 13-23z"/>
<path transform="translate(1526,422)" d="m0 0h370l9 1 1 25-1 171-4 10-8 9-8 4-9 2h-324l-11-4-9-8-6-12-1-6v-191z" fill="#FEFEFE"/>
</svg>
